<svg width="210" height="210" viewBox="0 0 210 210" fill="none" xmlns="http://www.w3.org/2000/svg">
<path d="M107.605 137.213C127.246 137.213 143.169 121.291 143.169 101.649C143.169 82.0078 127.246 66.0853 107.605 66.0853C87.9634 66.0853 72.0409 82.0078 72.0409 101.649C72.0409 121.291 87.9634 137.213 107.605 137.213Z" stroke="white" stroke-width="7.55905"/>
<path d="M107.853 77.7305H107.357C106.814 77.7305 106.374 78.1707 106.374 78.7138V124.585C106.374 125.128 106.814 125.568 107.357 125.568H107.853C108.396 125.568 108.836 125.128 108.836 124.585V78.7138C108.836 78.1707 108.396 77.7305 107.853 77.7305Z" fill="white"/>
<path d="M131.524 101.897V101.402C131.524 100.858 131.083 100.418 130.54 100.418H84.6694C84.1263 100.418 83.6861 100.858 83.6861 101.402V101.897C83.6861 102.44 84.1263 102.88 84.6694 102.88H130.54C131.083 102.88 131.524 102.44 131.524 101.897Z" fill="white"/>
<path d="M165.569 32.821L184.903 32.9012V189.293C184.903 190.393 184.017 191.279 182.917 191.279H29.615C28.5149 191.279 27.6292 190.393 27.6292 189.293V17.774C27.6292 16.6738 28.5149 15.7881 29.615 15.7881H166.438L166.36 34.4117" stroke="white" stroke-width="7.55905"/>
</svg>
