<svg width="217" height="399" viewBox="0 0 217 399" fill="none" xmlns="http://www.w3.org/2000/svg">
<path d="M104.229 135.487C139.195 135.487 167.54 107.142 167.54 72.1761C167.54 37.2103 139.195 8.86487 104.229 8.86487C69.2634 8.86487 40.918 37.2103 40.918 72.1761C40.918 107.142 69.2634 135.487 104.229 135.487Z" stroke="white" stroke-width="9.53563"/>
<path d="M175.984 275.936C175.984 315.038 178.023 374.101 154.703 374.123C132.401 374.147 120.64 374.264 104.401 374.264C88.6464 374.264 77.7674 374.261 53.8896 373.8C30.2201 373.344 32.8173 315.854 32.8173 275.937C32.8173 209.575 64.8662 155.778 104.401 155.778C143.935 155.778 175.984 209.575 175.984 275.936Z" stroke="white" stroke-width="9.32205"/>
</svg>
