<svg width="287" height="445" viewBox="0 0 287 445" fill="none" xmlns="http://www.w3.org/2000/svg">
<g clip-path="url(#clip0_4_419)">
<path d="M26.3274 390.478C29.7032 392.166 80.0946 233.225 85.4279 233.906C107.593 279.228 145.971 367.943 145.971 367.943C145.971 367.943 187.333 280.765 206.48 233.906C206.48 233.906 254.723 349.797 267.03 390.478L247.058 378.422L207.013 259.432C194.135 287.258 149.795 391.957 145.851 390.478C145.851 390.478 99.0036 292.885 85.6529 257.189L46.2994 378.422L26.3274 390.478Z" fill="url(#paint0_linear_4_419)"/>
<path d="M265.094 275.574C261.718 273.886 211.326 432.827 205.993 432.146C183.828 386.824 146.059 298.109 146.059 298.109C146.059 298.109 104.088 385.287 84.9412 432.146C84.9412 432.146 36.6976 316.255 24.3911 275.574L44.3631 287.631L84.4085 406.62C97.2861 378.794 142.273 274.095 146.217 275.574C146.217 275.574 192.417 373.167 205.768 408.863L245.122 287.631L265.094 275.574Z" fill="url(#paint1_linear_4_419)"/>
<path d="M145.711 242.76C201.121 242.76 246.039 194.199 246.039 134.297C246.039 74.3939 201.121 25.8332 145.711 25.8332C90.3006 25.8332 45.382 74.3939 45.382 134.297C45.382 194.199 90.3006 242.76 145.711 242.76Z" stroke="url(#paint2_linear_4_419)" stroke-width="9.66206"/>
<path d="M71.8521 82.6918H78.1067V185.688L82.2036 185.77L86.1366 186.016L93.5931 186.453L99.1649 187.109L106.321 188.147L113.887 189.403L122.162 191.096L128.144 192.38L133.47 193.992L139.287 196.013L143.739 197.515L145.679 198.17L155.02 194.784L162.367 192.653L173.374 189.922L184.217 188.229L194.377 186.863L201.752 186.125L204.838 185.934L213.032 185.743V82.5688H219.587V192.025L212.158 192.052L203.992 192.434L196.426 193.09L187.385 194.346L178.126 195.685L169.086 197.897L160.4 200.109L154.746 201.803L148.492 204.015L145.87 205.353L139.287 202.649L128.69 199.345L117.765 196.75L106.539 194.538L97.4988 193.445L86.1913 192.38L76.2915 192.018L71.6199 192.039V82.7054L71.8521 82.6918Z" stroke="url(#paint3_linear_4_419)" stroke-width="3.24134"/>
<path d="M85.2211 70.8295H90.3899V174.106L93.7757 174.188L97.026 174.435L103.188 174.873L107.793 175.53L113.706 176.571L119.959 177.831L126.798 179.529L131.741 180.816L136.143 182.432L140.951 184.458L144.63 185.965L146.232 186.622L153.952 183.226L160.024 181.09L169.12 178.351L178.081 176.653L186.478 175.284L192.572 174.544L195.123 174.353L201.894 174.161V70.7062H207.311V180.46L201.172 180.487L194.423 180.871L188.17 181.528L180.699 182.788L173.047 184.13L165.576 186.348L158.398 188.566L153.726 190.264L148.557 192.483L146.39 193.825L140.951 191.113L132.193 187.8L123.164 185.198L113.887 182.979L106.416 181.884L97.0712 180.816L88.8898 180.453L85.0292 180.473V70.8432L85.2211 70.8295Z" stroke="url(#paint4_linear_4_419)" stroke-width="2.95061"/>
<path d="M85.2024 67.4904H90.0622V67.5579L93.4479 67.6401L96.6983 67.8865L102.86 68.3247L107.465 68.982L113.379 70.0227L119.631 71.2825L126.47 72.9805L131.414 74.2677L135.815 75.8835L140.623 77.9102L144.302 79.4165L145.905 80.0738L153.624 76.6778L159.696 74.5416L168.792 71.8029L177.753 70.1049L186.15 68.7355L192.244 67.9961L194.795 67.8044L201.566 67.6127V67.6221H207.366V73.9123L200.844 73.9395L194.095 74.3229L187.843 74.9802L180.372 76.24L172.72 77.582L165.248 79.8004L158.071 82.0187L153.398 83.7167L148.229 85.9351L146.063 87.277L140.623 84.5657L131.865 81.2519L122.836 78.6501L113.559 76.4317L106.088 75.3363L96.7435 74.2682L88.5621 73.9051L85.0105 73.9258V67.5046L85.2024 67.4904Z" stroke="url(#paint5_linear_4_419)" stroke-width="2.95061"/>
<path d="M146.646 80.1165H145.585V184.125H146.646V80.1165Z" stroke="#1D38FF" stroke-width="3.74176"/>
</g>
<defs>
<linearGradient id="paint0_linear_4_419" x1="26.3274" y1="312.199" x2="267.03" y2="312.199" gradientUnits="userSpaceOnUse">
<stop stop-color="#ED2F2F"/>
<stop offset="1" stop-color="#2F5CED"/>
</linearGradient>
<linearGradient id="paint1_linear_4_419" x1="265.094" y1="353.853" x2="24.3911" y2="353.853" gradientUnits="userSpaceOnUse">
<stop stop-color="#ED2F51"/>
<stop offset="1" stop-color="#2F5CED"/>
</linearGradient>
<linearGradient id="paint2_linear_4_419" x1="40.5509" y1="134.297" x2="250.87" y2="134.297" gradientUnits="userSpaceOnUse">
<stop stop-color="#ED2F6B"/>
<stop offset="1" stop-color="#2F5CED"/>
</linearGradient>
<linearGradient id="paint3_linear_4_419" x1="69.9992" y1="144.042" x2="221.208" y2="144.042" gradientUnits="userSpaceOnUse">
<stop stop-color="#1D38FF"/>
<stop offset="1" stop-color="#2B15FF"/>
</linearGradient>
<linearGradient id="paint4_linear_4_419" x1="83.5539" y1="132.371" x2="208.787" y2="132.371" gradientUnits="userSpaceOnUse">
<stop stop-color="#1D38FF"/>
<stop offset="1" stop-color="#001DED"/>
</linearGradient>
<linearGradient id="paint5_linear_4_419" x1="83.5352" y1="77.4896" x2="208.841" y2="77.4896" gradientUnits="userSpaceOnUse">
<stop stop-color="#1D38FF"/>
<stop offset="1" stop-color="#001BD3"/>
</linearGradient>
<clipPath id="clip0_4_419">
<rect width="287" height="445" rx="10" fill="white"/>
</clipPath>
</defs>
</svg>
