<svg width="321" height="423" viewBox="0 0 321 423" fill="none" xmlns="http://www.w3.org/2000/svg">
<g clip-path="url(#clip0_2_9)">
<path d="M274.217 35.6694L246.937 19.9192C241.024 16.5051 233.463 18.5312 230.048 24.4445L43.455 347.634C40.041 353.547 42.067 361.109 47.9804 364.523L75.2605 380.273C81.1739 383.687 88.7352 381.661 92.1493 375.747L278.743 52.5582C282.157 46.6448 280.131 39.0834 274.217 35.6694Z" fill="url(#paint0_linear_2_9)"/>
<path d="M275.892 53.3L260.864 44.6231C260.323 44.3107 259.631 44.4961 259.319 45.037L258.053 47.2282C257.741 47.7692 257.926 48.4609 258.467 48.7732L273.496 57.4502C274.037 57.7625 274.729 57.5772 275.041 57.0362L276.306 54.845C276.619 54.3041 276.433 53.6124 275.892 53.3Z" fill="white"/>
<path d="M259.942 80.9275L244.913 72.2506C244.372 71.9382 243.68 72.1236 243.368 72.6645L242.103 74.8557C241.79 75.3967 241.976 76.0884 242.517 76.4007L257.546 85.0777C258.087 85.39 258.778 85.2047 259.091 84.6637L260.356 82.4725C260.668 81.9316 260.483 81.2399 259.942 80.9275Z" fill="white"/>
<path d="M272.064 59.9317L265.072 55.8952C264.531 55.5828 263.839 55.7682 263.527 56.3091L263.499 56.357C263.187 56.898 263.372 57.5897 263.913 57.902L270.905 61.9386C271.446 62.2509 272.138 62.0656 272.45 61.5246L272.478 61.4767C272.79 60.9358 272.605 60.2441 272.064 59.9317Z" fill="white"/>
<path d="M269.173 64.939L262.181 60.9024C261.64 60.5901 260.948 60.7754 260.636 61.3164L260.609 61.3642C260.296 61.9052 260.482 62.5969 261.023 62.9092L268.014 66.9458C268.555 67.2581 269.247 67.0728 269.559 66.5318L269.587 66.484C269.899 65.943 269.714 65.2513 269.173 64.939Z" fill="white"/>
<path d="M265.972 70.482L258.981 66.4455C258.44 66.1331 257.748 66.3185 257.436 66.8594L257.408 66.9073C257.096 67.4482 257.281 68.14 257.822 68.4523L264.814 72.4889C265.355 72.8012 266.046 72.6158 266.359 72.0749L266.386 72.027C266.699 71.4861 266.513 70.7944 265.972 70.482Z" fill="white"/>
<path d="M262.941 75.732L255.95 71.6955C255.409 71.3831 254.717 71.5685 254.405 72.1094L254.377 72.1573C254.065 72.6982 254.25 73.39 254.791 73.7023L261.783 77.7389C262.324 78.0512 263.015 77.8658 263.328 77.3249L263.355 77.277C263.668 76.7361 263.482 76.0444 262.941 75.732Z" fill="white"/>
<path d="M275.892 53.3L260.864 44.6231C260.323 44.3107 259.631 44.4961 259.319 45.037L258.053 47.2282C257.741 47.7692 257.926 48.4609 258.467 48.7732L273.496 57.4502C274.037 57.7625 274.729 57.5772 275.041 57.0362L276.306 54.845C276.619 54.3041 276.433 53.6124 275.892 53.3Z" fill="white"/>
<path d="M259.942 80.9275L244.913 72.2506C244.372 71.9382 243.68 72.1236 243.368 72.6645L242.103 74.8557C241.79 75.3967 241.976 76.0884 242.517 76.4007L257.546 85.0777C258.087 85.39 258.778 85.2047 259.091 84.6637L260.356 82.4725C260.668 81.9316 260.483 81.2399 259.942 80.9275Z" fill="white"/>
<path d="M272.064 59.9317L265.072 55.8952C264.531 55.5828 263.839 55.7682 263.527 56.3091L263.499 56.357C263.187 56.898 263.372 57.5897 263.913 57.902L270.905 61.9386C271.446 62.2509 272.138 62.0656 272.45 61.5246L272.478 61.4767C272.79 60.9358 272.605 60.2441 272.064 59.9317Z" fill="white"/>
<path d="M269.173 64.939L262.181 60.9024C261.64 60.5901 260.948 60.7754 260.636 61.3164L260.609 61.3642C260.296 61.9052 260.482 62.5969 261.023 62.9092L268.014 66.9458C268.555 67.2581 269.247 67.0728 269.559 66.5318L269.587 66.484C269.899 65.943 269.714 65.2513 269.173 64.939Z" fill="white"/>
<path d="M265.972 70.482L258.981 66.4455C258.44 66.1331 257.748 66.3185 257.436 66.8594L257.408 66.9073C257.096 67.4482 257.281 68.14 257.822 68.4523L264.814 72.4889C265.355 72.8012 266.046 72.6158 266.359 72.0749L266.386 72.027C266.699 71.4861 266.513 70.7944 265.972 70.482Z" fill="white"/>
<path d="M262.941 75.732L255.95 71.6955C255.409 71.3831 254.717 71.5685 254.405 72.1094L254.377 72.1573C254.065 72.6982 254.25 73.39 254.791 73.7023L261.783 77.7389C262.324 78.0512 263.015 77.8658 263.328 77.3249L263.355 77.277C263.668 76.7361 263.482 76.0444 262.941 75.732Z" fill="white"/>
<path d="M243.325 109.709L228.296 101.032C227.755 100.72 227.063 100.905 226.751 101.446L225.486 103.637C225.173 104.178 225.359 104.87 225.9 105.182L240.929 113.859C241.47 114.172 242.161 113.986 242.474 113.445L243.739 111.254C244.051 110.713 243.866 110.021 243.325 109.709Z" fill="white"/>
<path d="M255.447 88.7132L248.455 84.6767C247.914 84.3643 247.222 84.5497 246.91 85.0906L246.882 85.1385C246.57 85.6794 246.755 86.3712 247.296 86.6835L254.288 90.7201C254.829 91.0324 255.521 90.847 255.833 90.3061L255.861 90.2582C256.173 89.7173 255.988 89.0256 255.447 88.7132Z" fill="white"/>
<path d="M252.556 93.7205L245.564 89.6839C245.023 89.3716 244.331 89.5569 244.019 90.0979L243.992 90.1457C243.679 90.6867 243.865 91.3784 244.405 91.6907L251.397 95.7273C251.938 96.0396 252.63 95.8543 252.942 95.3133L252.97 95.2655C253.282 94.7245 253.097 94.0328 252.556 93.7205Z" fill="white"/>
<path d="M249.355 99.2635L242.364 95.2269C241.823 94.9146 241.131 95.1 240.819 95.6409L240.791 95.6888C240.479 96.2297 240.664 96.9215 241.205 97.2338L248.197 101.27C248.738 101.583 249.429 101.397 249.742 100.856L249.769 100.809C250.082 100.268 249.896 99.5758 249.355 99.2635Z" fill="white"/>
<path d="M246.324 104.514L239.333 100.477C238.792 100.165 238.1 100.35 237.788 100.891L237.76 100.939C237.448 101.48 237.633 102.171 238.174 102.484L245.166 106.52C245.707 106.833 246.398 106.647 246.711 106.106L246.738 106.059C247.051 105.518 246.865 104.826 246.324 104.514Z" fill="white"/>
<path d="M226.708 138.491L211.679 129.814C211.138 129.501 210.446 129.687 210.134 130.228L208.869 132.419C208.556 132.96 208.742 133.651 209.283 133.964L224.312 142.641C224.853 142.953 225.544 142.768 225.857 142.227L227.122 140.036C227.434 139.495 227.249 138.803 226.708 138.491Z" fill="white"/>
<path d="M238.83 117.495L231.838 113.458C231.297 113.146 230.605 113.331 230.293 113.872L230.265 113.92C229.953 114.461 230.138 115.153 230.679 115.465L237.671 119.502C238.212 119.814 238.904 119.629 239.216 119.088L239.244 119.04C239.556 118.499 239.371 117.807 238.83 117.495Z" fill="white"/>
<path d="M235.939 122.502L228.947 118.465C228.406 118.153 227.714 118.338 227.402 118.879L227.375 118.927C227.062 119.468 227.248 120.16 227.788 120.472L234.78 124.509C235.321 124.821 236.013 124.636 236.325 124.095L236.353 124.047C236.665 123.506 236.48 122.814 235.939 122.502Z" fill="white"/>
<path d="M232.738 128.045L225.747 124.008C225.206 123.696 224.514 123.881 224.202 124.422L224.174 124.47C223.862 125.011 224.047 125.703 224.588 126.015L231.58 130.052C232.121 130.364 232.812 130.179 233.125 129.638L233.152 129.59C233.465 129.049 233.279 128.357 232.738 128.045Z" fill="white"/>
<path d="M229.707 133.295L222.716 129.258C222.175 128.946 221.483 129.131 221.171 129.672L221.143 129.72C220.831 130.261 221.016 130.953 221.557 131.265L228.549 135.302C229.09 135.614 229.781 135.429 230.094 134.888L230.121 134.84C230.434 134.299 230.248 133.607 229.707 133.295Z" fill="white"/>
<path d="M210.444 166.66L195.415 157.983C194.874 157.67 194.183 157.856 193.87 158.397L192.605 160.588C192.293 161.129 192.478 161.821 193.019 162.133L208.048 170.81C208.589 171.122 209.281 170.937 209.593 170.396L210.858 168.205C211.171 167.664 210.985 166.972 210.444 166.66Z" fill="white"/>
<path d="M222.566 145.664L215.575 141.627C215.034 141.315 214.342 141.5 214.03 142.041L214.002 142.089C213.69 142.63 213.875 143.322 214.416 143.634L221.408 147.671C221.948 147.983 222.64 147.798 222.953 147.257L222.98 147.209C223.292 146.668 223.107 145.976 222.566 145.664Z" fill="white"/>
<path d="M219.675 150.671L212.684 146.635C212.143 146.322 211.451 146.508 211.139 147.049L211.111 147.096C210.799 147.637 210.984 148.329 211.525 148.641L218.517 152.678C219.058 152.99 219.749 152.805 220.062 152.264L220.089 152.216C220.402 151.675 220.216 150.983 219.675 150.671Z" fill="white"/>
<path d="M216.475 156.214L209.483 152.178C208.942 151.865 208.251 152.051 207.938 152.592L207.911 152.639C207.598 153.18 207.784 153.872 208.325 154.184L215.316 158.221C215.857 158.533 216.549 158.348 216.861 157.807L216.889 157.759C217.201 157.218 217.016 156.527 216.475 156.214Z" fill="white"/>
<path d="M213.444 161.464L206.452 157.428C205.911 157.115 205.22 157.301 204.907 157.842L204.88 157.889C204.567 158.43 204.753 159.122 205.294 159.434L212.285 163.471C212.826 163.783 213.518 163.598 213.83 163.057L213.858 163.009C214.17 162.468 213.985 161.777 213.444 161.464Z" fill="white"/>
<path d="M193.694 195.672L178.665 186.995C178.124 186.682 177.433 186.868 177.12 187.409L175.855 189.6C175.543 190.141 175.728 190.832 176.269 191.145L191.298 199.822C191.839 200.134 192.531 199.949 192.843 199.408L194.108 197.217C194.421 196.676 194.235 195.984 193.694 195.672Z" fill="white"/>
<path d="M205.816 174.676L198.825 170.639C198.284 170.327 197.592 170.512 197.28 171.053L197.252 171.101C196.94 171.642 197.125 172.334 197.666 172.646L204.658 176.683C205.198 176.995 205.89 176.81 206.203 176.269L206.23 176.221C206.542 175.68 206.357 174.988 205.816 174.676Z" fill="white"/>
<path d="M202.925 179.683L195.934 175.646C195.393 175.334 194.701 175.519 194.389 176.06L194.361 176.108C194.049 176.649 194.234 177.341 194.775 177.653L201.767 181.69C202.308 182.002 202.999 181.817 203.312 181.276L203.339 181.228C203.652 180.687 203.466 179.995 202.925 179.683Z" fill="white"/>
<path d="M199.725 185.226L192.733 181.189C192.192 180.877 191.501 181.062 191.188 181.603L191.161 181.651C190.848 182.192 191.034 182.884 191.575 183.196L198.566 187.233C199.107 187.545 199.799 187.36 200.111 186.819L200.139 186.771C200.451 186.23 200.266 185.538 199.725 185.226Z" fill="white"/>
<path d="M196.694 190.476L189.702 186.439C189.161 186.127 188.47 186.312 188.157 186.853L188.13 186.901C187.817 187.442 188.003 188.134 188.544 188.446L195.535 192.483C196.076 192.795 196.768 192.61 197.08 192.069L197.108 192.021C197.42 191.48 197.235 190.788 196.694 190.476Z" fill="white"/>
<path d="M176.944 224.683L161.915 216.006C161.374 215.694 160.683 215.879 160.37 216.42L159.105 218.612C158.793 219.153 158.978 219.844 159.519 220.157L174.548 228.834C175.089 229.146 175.781 228.96 176.093 228.42L177.358 226.228C177.671 225.687 177.485 224.996 176.944 224.683Z" fill="white"/>
<path d="M189.066 203.688L182.075 199.651C181.534 199.339 180.842 199.524 180.53 200.065L180.502 200.113C180.19 200.654 180.375 201.346 180.916 201.658L187.908 205.694C188.448 206.007 189.14 205.821 189.453 205.28L189.48 205.233C189.792 204.692 189.607 204 189.066 203.688Z" fill="white"/>
<path d="M186.175 208.695L179.184 204.658C178.643 204.346 177.951 204.531 177.639 205.072L177.611 205.12C177.299 205.661 177.484 206.353 178.025 206.665L185.017 210.702C185.558 211.014 186.249 210.829 186.562 210.288L186.589 210.24C186.902 209.699 186.716 209.007 186.175 208.695Z" fill="white"/>
<path d="M182.975 214.238L175.983 210.201C175.442 209.889 174.751 210.074 174.438 210.615L174.411 210.663C174.098 211.204 174.284 211.896 174.825 212.208L181.816 216.245C182.357 216.557 183.049 216.372 183.361 215.831L183.389 215.783C183.701 215.242 183.516 214.55 182.975 214.238Z" fill="white"/>
<path d="M179.944 219.488L172.952 215.451C172.411 215.139 171.72 215.324 171.407 215.865L171.38 215.913C171.067 216.454 171.253 217.146 171.794 217.458L178.785 221.495C179.326 221.807 180.018 221.622 180.33 221.081L180.358 221.033C180.67 220.492 180.485 219.8 179.944 219.488Z" fill="white"/>
<path d="M160.444 253.262L145.415 244.585C144.874 244.273 144.183 244.458 143.87 244.999L142.605 247.19C142.293 247.731 142.478 248.423 143.019 248.735L158.048 257.412C158.589 257.725 159.281 257.539 159.593 256.998L160.858 254.807C161.171 254.266 160.985 253.575 160.444 253.262Z" fill="white"/>
<path d="M172.566 232.266L165.575 228.23C165.034 227.917 164.342 228.103 164.03 228.644L164.002 228.692C163.69 229.233 163.875 229.924 164.416 230.237L171.408 234.273C171.948 234.586 172.64 234.4 172.953 233.859L172.98 233.811C173.292 233.27 173.107 232.579 172.566 232.266Z" fill="white"/>
<path d="M169.675 237.274L162.684 233.237C162.143 232.925 161.451 233.11 161.139 233.651L161.111 233.699C160.799 234.24 160.984 234.932 161.525 235.244L168.517 239.28C169.058 239.593 169.749 239.407 170.062 238.866L170.089 238.819C170.402 238.278 170.216 237.586 169.675 237.274Z" fill="white"/>
<path d="M166.475 242.817L159.483 238.78C158.942 238.468 158.251 238.653 157.938 239.194L157.911 239.242C157.598 239.783 157.784 240.475 158.325 240.787L165.316 244.824C165.857 245.136 166.549 244.951 166.861 244.41L166.889 244.362C167.201 243.821 167.016 243.129 166.475 242.817Z" fill="white"/>
<path d="M163.444 248.067L156.452 244.03C155.911 243.718 155.22 243.903 154.907 244.444L154.88 244.492C154.567 245.033 154.753 245.725 155.294 246.037L162.285 250.074C162.826 250.386 163.518 250.2 163.83 249.66L163.858 249.612C164.17 249.071 163.985 248.379 163.444 248.067Z" fill="white"/>
<path d="M143.65 282.35L128.622 273.673C128.081 273.361 127.389 273.546 127.077 274.087L125.811 276.278C125.499 276.819 125.684 277.511 126.225 277.823L141.254 286.5C141.795 286.812 142.487 286.627 142.799 286.086L144.064 283.895C144.377 283.354 144.191 282.662 143.65 282.35Z" fill="white"/>
<path d="M155.772 261.354L148.781 257.318C148.24 257.005 147.548 257.191 147.236 257.732L147.208 257.779C146.896 258.32 147.081 259.012 147.622 259.324L154.614 263.361C155.155 263.673 155.846 263.488 156.159 262.947L156.186 262.899C156.499 262.358 156.313 261.666 155.772 261.354Z" fill="white"/>
<path d="M152.881 266.361L145.89 262.325C145.349 262.012 144.657 262.198 144.345 262.739L144.317 262.787C144.005 263.328 144.19 264.019 144.731 264.332L151.723 268.368C152.264 268.68 152.955 268.495 153.268 267.954L153.295 267.906C153.608 267.365 153.422 266.674 152.881 266.361Z" fill="white"/>
<path d="M149.681 271.904L142.69 267.868C142.149 267.555 141.457 267.741 141.145 268.282L141.117 268.33C140.805 268.871 140.99 269.562 141.531 269.875L148.523 273.911C149.063 274.224 149.755 274.038 150.068 273.497L150.095 273.449C150.407 272.908 150.222 272.217 149.681 271.904Z" fill="white"/>
<path d="M146.65 277.154L139.659 273.118C139.118 272.805 138.426 272.991 138.114 273.532L138.086 273.58C137.774 274.121 137.959 274.812 138.5 275.125L145.491 279.161C146.032 279.474 146.724 279.288 147.036 278.747L147.064 278.699C147.376 278.158 147.191 277.467 146.65 277.154Z" fill="white"/>
<path d="M127.564 310.213L112.535 301.536C111.994 301.224 111.302 301.409 110.99 301.95L109.725 304.141C109.412 304.682 109.598 305.374 110.139 305.686L125.168 314.363C125.709 314.675 126.4 314.49 126.713 313.949L127.978 311.758C128.29 311.217 128.105 310.525 127.564 310.213Z" fill="white"/>
<path d="M139.686 289.217L132.694 285.18C132.153 284.868 131.461 285.053 131.149 285.594L131.122 285.642C130.809 286.183 130.995 286.875 131.536 287.187L138.527 291.224C139.068 291.536 139.76 291.351 140.072 290.81L140.1 290.762C140.412 290.221 140.227 289.529 139.686 289.217Z" fill="white"/>
<path d="M136.795 294.224L129.803 290.188C129.262 289.875 128.571 290.061 128.258 290.602L128.231 290.65C127.918 291.19 128.104 291.882 128.645 292.195L135.636 296.231C136.177 296.543 136.869 296.358 137.181 295.817L137.209 295.769C137.521 295.228 137.336 294.537 136.795 294.224Z" fill="white"/>
<path d="M133.594 299.767L126.603 295.731C126.062 295.418 125.37 295.604 125.058 296.145L125.03 296.193C124.718 296.734 124.903 297.425 125.444 297.738L132.436 301.774C132.977 302.087 133.669 301.901 133.981 301.36L134.008 301.312C134.321 300.771 134.135 300.08 133.594 299.767Z" fill="white"/>
<path d="M130.563 305.017L123.572 300.981C123.031 300.668 122.339 300.854 122.027 301.395L121.999 301.443C121.687 301.984 121.872 302.675 122.413 302.988L129.405 307.024C129.946 307.336 130.637 307.151 130.95 306.61L130.977 306.562C131.29 306.021 131.104 305.33 130.563 305.017Z" fill="white"/>
<path d="M111.477 338.076L96.4482 329.399C95.9072 329.086 95.2155 329.272 94.9032 329.813L93.6381 332.004C93.3258 332.545 93.5111 333.237 94.0521 333.549L109.081 342.226C109.622 342.538 110.314 342.353 110.626 341.812L111.891 339.621C112.203 339.08 112.018 338.388 111.477 338.076Z" fill="white"/>
<path d="M123.599 317.08L116.607 313.043C116.066 312.731 115.375 312.916 115.062 313.457L115.035 313.505C114.723 314.046 114.908 314.738 115.449 315.05L122.44 319.087C122.981 319.399 123.673 319.214 123.985 318.673L124.013 318.625C124.325 318.084 124.14 317.392 123.599 317.08Z" fill="white"/>
<path d="M120.708 322.087L113.717 318.051C113.176 317.738 112.484 317.924 112.172 318.465L112.144 318.512C111.832 319.053 112.017 319.745 112.558 320.057L119.549 324.094C120.09 324.406 120.782 324.221 121.094 323.68L121.122 323.632C121.434 323.091 121.249 322.4 120.708 322.087Z" fill="white"/>
<path d="M117.508 327.63L110.516 323.594C109.975 323.281 109.284 323.467 108.971 324.008L108.944 324.056C108.631 324.597 108.817 325.288 109.358 325.601L116.349 329.637C116.89 329.949 117.582 329.764 117.894 329.223L117.922 329.175C118.234 328.634 118.049 327.943 117.508 327.63Z" fill="white"/>
<path d="M114.477 332.88L107.485 328.844C106.944 328.531 106.252 328.717 105.94 329.258L105.913 329.306C105.6 329.847 105.786 330.538 106.327 330.851L113.318 334.887C113.859 335.199 114.551 335.014 114.863 334.473L114.891 334.425C115.203 333.884 115.018 333.193 114.477 332.88Z" fill="white"/>
<path d="M95.2137 366.245L80.1847 357.568C79.6437 357.256 78.952 357.441 78.6397 357.982L77.3746 360.173C77.0623 360.714 77.2476 361.406 77.7886 361.718L92.8176 370.395C93.3585 370.707 94.0502 370.522 94.3626 369.981L95.6276 367.79C95.94 367.249 95.7546 366.557 95.2137 366.245Z" fill="white"/>
<path d="M107.336 345.249L100.344 341.213C99.803 340.9 99.1113 341.086 98.799 341.627L98.7714 341.674C98.459 342.215 98.6444 342.907 99.1854 343.219L106.177 347.256C106.718 347.568 107.41 347.383 107.722 346.842L107.75 346.794C108.062 346.253 107.877 345.561 107.336 345.249Z" fill="white"/>
<path d="M104.445 350.256L97.4531 346.22C96.9121 345.907 96.2204 346.093 95.9081 346.634L95.8804 346.682C95.5681 347.223 95.7534 347.914 96.2944 348.227L103.286 352.263C103.827 352.576 104.519 352.39 104.831 351.849L104.859 351.801C105.171 351.26 104.986 350.569 104.445 350.256Z" fill="white"/>
<path d="M101.244 355.799L94.2528 351.763C93.7118 351.45 93.0201 351.636 92.7078 352.177L92.6802 352.225C92.3678 352.766 92.5532 353.457 93.0941 353.77L100.086 357.806C100.627 358.119 101.318 357.933 101.631 357.392L101.658 357.344C101.971 356.803 101.785 356.112 101.244 355.799Z" fill="white"/>
<path d="M98.2132 361.049L91.2217 357.013C90.6807 356.701 89.989 356.886 89.6767 357.427L89.649 357.475C89.3367 358.016 89.5221 358.707 90.063 359.02L97.0546 363.056C97.5955 363.369 98.2873 363.183 98.5996 362.642L98.6272 362.594C98.9395 362.053 98.7542 361.362 98.2132 361.049Z" fill="white"/>
</g>
<defs>
<linearGradient id="paint0_linear_2_9" x1="135.127" y1="185.101" x2="187.071" y2="215.091" gradientUnits="userSpaceOnUse">
<stop stop-color="#FF1515"/>
<stop offset="1" stop-color="#0936FF"/>
</linearGradient>
<clipPath id="clip0_2_9">
<rect width="114" height="444" fill="white" transform="translate(222 -19) rotate(30)"/>
</clipPath>
</defs>
</svg>
