<svg width="310" height="338" viewBox="0 0 310 338" fill="none" xmlns="http://www.w3.org/2000/svg">
<path d="M250.219 119.223C250.219 123.924 248.946 127.163 248.147 129.836C247.592 131.691 246.805 134.467 245.305 134.503C240.718 134.613 240.264 134.62 234.817 134.533C209.785 134.133 161.041 88.7367 121.119 88.7367C92.5624 88.7367 71.426 107.454 63.3695 122.937C61.4752 126.577 61.2157 134.602 58.6503 134.624C54.2 134.662 53.132 134.826 51.7974 134.53C49.9334 134.116 49.1245 129.752 49.1245 119.223C49.1245 71.7218 94.1411 33.2144 149.672 33.2144C205.203 33.2144 250.219 71.7218 250.219 119.223Z" stroke="white" stroke-width="9.99999"/>
<path d="M262.06 169.405C262.083 184.326 260.922 183.83 237.097 183.232C226.637 182.97 228.715 208.181 221.559 226.987C215.288 243.466 181.388 263.427 151.799 263.943C119.142 264.513 90.2818 237.727 79.3632 225.274C65.3205 209.257 70.9378 174.148 53.6985 175.645C36.5747 177.131 31.7309 177.696 31.8039 163.53" stroke="white" stroke-width="12.9787"/>
<path d="M188.136 256.756C188.136 256.756 208.039 275.676 217.738 285.83C220.008 288.206 219.189 293.039 216.91 295.405C214.08 298.344 210.353 299.84 207.239 297.204C194.06 286.048 173.397 263.487 173.397 263.487L188.136 256.756Z" fill="white"/>
<path d="M65.5406 291.513C71.8142 289.359 76.1214 288.081 81.8824 285.209C88.2174 282.052 94.2839 277.649 100.651 273.248C103.313 271.408 106.76 273.284 108.151 276.206C109.464 278.965 108.605 282.588 106.474 284.778C101.474 289.919 95.4968 294.297 89.491 297.29C83.4007 300.325 77.7309 301.44 69.925 302.718C67.1105 303.179 64.2704 301.18 62.9719 298.641C61.6118 295.982 62.7154 292.482 65.5406 291.513Z" fill="white"/>
</svg>
