<svg width="466" height="475" viewBox="0 0 466 475" fill="none" xmlns="http://www.w3.org/2000/svg">
<g clip-path="url(#clip0_3_139)">
<path d="M263.18 96.7033C262.726 86.8355 258.535 79.061 253.82 79.3383C249.104 79.6156 245.648 87.8398 246.102 97.7075L255.263 297.006C255.717 306.874 259.907 314.648 264.623 314.371C269.339 314.093 272.794 305.869 272.341 296.002L263.18 96.7033Z" fill="url(#paint0_linear_3_139)"/>
<path d="M264.795 310.198C244.937 311.378 229.504 328.501 230.405 348.355C231.305 368.208 248.204 383.405 268.062 382.225C287.92 381.046 303.348 363.928 302.448 344.074C301.547 324.221 284.653 309.019 264.795 310.198ZM265.067 316.188C281.689 315.2 295.704 327.812 296.457 344.43C297.211 361.049 284.412 375.249 267.79 376.236C251.169 377.224 237.149 364.617 236.395 347.999C235.642 331.38 248.445 317.175 265.067 316.188Z" fill="url(#paint1_linear_3_139)"/>
<path d="M271.059 301.011L256.82 301.856C253.386 302.059 250.728 305.008 250.884 308.442C251.04 311.877 253.951 314.495 257.385 314.292L271.624 313.447C275.058 313.243 277.716 310.294 277.56 306.86C277.404 303.426 274.493 300.807 271.059 301.011Z" fill="#009CFF"/>
<path d="M113.89 184.532C105.06 180.104 96.1418 179.916 93.9703 184.111C91.7988 188.307 97.1967 195.297 106.027 199.725L284.369 289.156C293.199 293.584 302.117 293.773 304.289 289.577C306.46 285.382 301.063 278.391 292.232 273.963L113.89 184.532Z" fill="url(#paint2_linear_3_139)"/>
<path d="M300.691 287.49C291.536 305.151 298.55 326.772 316.321 335.67C334.092 344.568 356.007 337.431 365.162 319.77C374.316 302.109 367.304 280.494 349.533 271.597C331.763 262.699 309.845 269.828 300.691 287.49ZM306.051 290.174C313.714 275.391 331.897 269.477 346.772 276.924C361.647 284.372 367.464 302.303 359.801 317.086C352.138 331.869 333.958 337.79 319.083 330.342C304.208 322.894 298.389 304.957 306.051 290.174Z" fill="url(#paint3_linear_3_139)"/>
<path d="M295.922 277.566L289.359 290.23C287.776 293.285 288.985 297.009 292.058 298.548C295.132 300.088 298.907 298.859 300.49 295.805L307.053 283.141C308.636 280.086 307.428 276.362 304.354 274.822C301.28 273.283 297.505 274.511 295.922 277.566Z" fill="#009CFF"/>
</g>
<defs>
<linearGradient id="paint0_linear_3_139" x1="264" y1="285.912" x2="257.256" y2="80.7284" gradientUnits="userSpaceOnUse">
<stop stop-color="#1FFFFB"/>
<stop offset="1" stop-color="#3615FF"/>
</linearGradient>
<linearGradient id="paint1_linear_3_139" x1="232.325" y1="348.238" x2="300.573" y2="345.143" gradientUnits="userSpaceOnUse">
<stop stop-color="#005EFC"/>
<stop offset="1" stop-color="#3B00FC"/>
</linearGradient>
<linearGradient id="paint2_linear_3_139" x1="279.173" y1="276.217" x2="99.4733" y2="177.233" gradientUnits="userSpaceOnUse">
<stop stop-color="#1FFFFB"/>
<stop offset="1" stop-color="#3615FF"/>
</linearGradient>
<linearGradient id="paint3_linear_3_139" x1="317.204" y1="333.962" x2="347.791" y2="272.873" gradientUnits="userSpaceOnUse">
<stop stop-color="#005EFC"/>
<stop offset="1" stop-color="#3B00FC"/>
</linearGradient>
<clipPath id="clip0_3_139">
<rect width="345.583" height="340.685" fill="white" transform="translate(0.874878 188.873) rotate(-33)"/>
</clipPath>
</defs>
</svg>
