<svg width="353" height="333" viewBox="0 0 353 333" fill="none" xmlns="http://www.w3.org/2000/svg">
<g clip-path="url(#clip0_13_56)">
<path d="M277.193 188.397C276.658 195.787 276.265 197.648 269.865 200.992C263.166 204.492 256.174 203.756 256.205 205.74C256.502 224.425 256.563 233.108 247.22 248.148C232.16 272.39 199.844 308.126 173.898 308.126C148.619 308.126 116.826 272.565 101.752 249.385C92.6257 235.351 91.5835 222.126 91.606 205.161C91.6098 202.273 83.982 203.489 78.4065 200.363C73.7123 197.731 73.5146 190.795 73.5146 187.964C73.5146 184.734 73.6695 179.002 79.1197 176.239C85.1897 173.161 93.1479 171.695 93.1229 168.376C93.065 160.691 93.6085 143.617 93.6085 143.617C93.6085 143.617 144.833 135.19 170.48 135.165C198.017 135.139 253.124 143.187 253.124 143.187C253.124 143.187 254.3 157.144 254.418 166.467C254.455 169.434 263.359 168.107 269.684 172.827C276.513 177.924 277.417 185.31 277.193 188.397Z" stroke="white" stroke-width="10.099"/>
<path d="M93.6281 139.729L93.3846 111.053C93.3846 111.053 145.454 98.3359 171.085 98.3135C198.612 98.2895 252.744 111.13 252.744 111.13L252.869 139.322" stroke="white" stroke-width="9.99999"/>
<path d="M92.4147 144.305L24.3948 101.946L175.64 19.1609L325.661 101.946L254.581 143.692" stroke="white" stroke-width="9.99999"/>
<path d="M40.9566 109.859H33.6249V210.867H40.9566V109.859Z" fill="white"/>
<path d="M49.1673 230.794C46.7196 242.554 37.3393 252.476 37.3393 252.476C37.3393 252.476 27.463 243.257 25.0152 230.578C22.9312 219.783 30.4109 210.67 37.3393 210.67C44.2677 210.67 51.4077 220.031 49.1673 230.794Z" stroke="white" stroke-width="5.00001"/>
</g>
<defs>
<clipPath id="clip0_13_56">
<rect width="353" height="333" fill="white"/>
</clipPath>
</defs>
</svg>
